<mxfile host="app.diagrams.net" modified="2023-09-24T19:27:42.000Z" agent="Mozilla/5.0 (Windows NT 10.0; Win64; x64) AppleWebKit/537.36 (KHTML, like Gecko) Chrome/116.0.0.0 Safari/537.36" etag="8bO9RNu4H4uJt2y8vDAS" version="21.8.2" type="google">
  <diagram name="Página-1" id="n2yU26g9c_W9qSnj8aHq">
    <mxGraphModel dx="954" dy="588" grid="1" gridSize="10" guides="1" tooltips="1" connect="1" arrows="1" fold="1" page="1" pageScale="1" pageWidth="827" pageHeight="1169" math="0" shadow="0">
      <root>
        <mxCell id="0" />
        <mxCell id="1" parent="0" />
        <mxCell id="qlIrQi9XyQ6IbTG7EHrp-11" value="" style="edgeStyle=orthogonalEdgeStyle;rounded=0;orthogonalLoop=1;jettySize=auto;html=1;" edge="1" parent="1" source="qlIrQi9XyQ6IbTG7EHrp-1" target="qlIrQi9XyQ6IbTG7EHrp-2">
          <mxGeometry relative="1" as="geometry" />
        </mxCell>
        <mxCell id="qlIrQi9XyQ6IbTG7EHrp-1" value="Início" style="ellipse;whiteSpace=wrap;html=1;" vertex="1" parent="1">
          <mxGeometry x="130" y="90" width="120" height="60" as="geometry" />
        </mxCell>
        <mxCell id="qlIrQi9XyQ6IbTG7EHrp-9" value="" style="edgeStyle=orthogonalEdgeStyle;rounded=0;orthogonalLoop=1;jettySize=auto;html=1;" edge="1" parent="1" source="qlIrQi9XyQ6IbTG7EHrp-2" target="qlIrQi9XyQ6IbTG7EHrp-8">
          <mxGeometry relative="1" as="geometry" />
        </mxCell>
        <mxCell id="qlIrQi9XyQ6IbTG7EHrp-2" value="Informe a &lt;br&gt;primeira nota" style="shape=display;whiteSpace=wrap;html=1;" vertex="1" parent="1">
          <mxGeometry x="130" y="180" width="120" height="50" as="geometry" />
        </mxCell>
        <mxCell id="qlIrQi9XyQ6IbTG7EHrp-15" value="" style="edgeStyle=orthogonalEdgeStyle;rounded=0;orthogonalLoop=1;jettySize=auto;html=1;" edge="1" parent="1" source="qlIrQi9XyQ6IbTG7EHrp-8" target="qlIrQi9XyQ6IbTG7EHrp-13">
          <mxGeometry relative="1" as="geometry" />
        </mxCell>
        <mxCell id="qlIrQi9XyQ6IbTG7EHrp-8" value="nota1" style="html=1;strokeWidth=2;shape=manualInput;whiteSpace=wrap;rounded=1;size=26;arcSize=11;" vertex="1" parent="1">
          <mxGeometry x="140" y="260" width="100" height="60" as="geometry" />
        </mxCell>
        <mxCell id="qlIrQi9XyQ6IbTG7EHrp-12" value="" style="edgeStyle=orthogonalEdgeStyle;rounded=0;orthogonalLoop=1;jettySize=auto;html=1;" edge="1" parent="1" source="qlIrQi9XyQ6IbTG7EHrp-13" target="qlIrQi9XyQ6IbTG7EHrp-14">
          <mxGeometry relative="1" as="geometry" />
        </mxCell>
        <mxCell id="qlIrQi9XyQ6IbTG7EHrp-13" value="Informe a &lt;br&gt;segunda nota" style="shape=display;whiteSpace=wrap;html=1;" vertex="1" parent="1">
          <mxGeometry x="130" y="355" width="120" height="50" as="geometry" />
        </mxCell>
        <mxCell id="qlIrQi9XyQ6IbTG7EHrp-19" value="" style="edgeStyle=orthogonalEdgeStyle;rounded=0;orthogonalLoop=1;jettySize=auto;html=1;" edge="1" parent="1" source="qlIrQi9XyQ6IbTG7EHrp-14" target="qlIrQi9XyQ6IbTG7EHrp-17">
          <mxGeometry relative="1" as="geometry" />
        </mxCell>
        <mxCell id="qlIrQi9XyQ6IbTG7EHrp-14" value="nota2" style="html=1;strokeWidth=2;shape=manualInput;whiteSpace=wrap;rounded=1;size=26;arcSize=11;" vertex="1" parent="1">
          <mxGeometry x="140" y="435" width="100" height="60" as="geometry" />
        </mxCell>
        <mxCell id="qlIrQi9XyQ6IbTG7EHrp-22" value="" style="edgeStyle=orthogonalEdgeStyle;rounded=0;orthogonalLoop=1;jettySize=auto;html=1;" edge="1" parent="1" source="qlIrQi9XyQ6IbTG7EHrp-17" target="qlIrQi9XyQ6IbTG7EHrp-18">
          <mxGeometry relative="1" as="geometry" />
        </mxCell>
        <mxCell id="qlIrQi9XyQ6IbTG7EHrp-17" value="Informe a &lt;br&gt;terceira nota" style="shape=display;whiteSpace=wrap;html=1;" vertex="1" parent="1">
          <mxGeometry x="130" y="545" width="120" height="50" as="geometry" />
        </mxCell>
        <mxCell id="qlIrQi9XyQ6IbTG7EHrp-25" value="" style="edgeStyle=orthogonalEdgeStyle;rounded=0;orthogonalLoop=1;jettySize=auto;html=1;" edge="1" parent="1" source="qlIrQi9XyQ6IbTG7EHrp-18" target="qlIrQi9XyQ6IbTG7EHrp-24">
          <mxGeometry relative="1" as="geometry" />
        </mxCell>
        <mxCell id="qlIrQi9XyQ6IbTG7EHrp-18" value="nota3" style="html=1;strokeWidth=2;shape=manualInput;whiteSpace=wrap;rounded=1;size=26;arcSize=11;" vertex="1" parent="1">
          <mxGeometry x="300" y="540" width="100" height="60" as="geometry" />
        </mxCell>
        <mxCell id="qlIrQi9XyQ6IbTG7EHrp-29" value="" style="edgeStyle=orthogonalEdgeStyle;rounded=0;orthogonalLoop=1;jettySize=auto;html=1;" edge="1" parent="1" source="qlIrQi9XyQ6IbTG7EHrp-24" target="qlIrQi9XyQ6IbTG7EHrp-27">
          <mxGeometry relative="1" as="geometry" />
        </mxCell>
        <mxCell id="qlIrQi9XyQ6IbTG7EHrp-24" value="média = nota1+&lt;br&gt;nota2+nota3/3" style="rounded=1;whiteSpace=wrap;html=1;absoluteArcSize=1;arcSize=14;strokeWidth=2;" vertex="1" parent="1">
          <mxGeometry x="325" y="435" width="150" height="60" as="geometry" />
        </mxCell>
        <mxCell id="qlIrQi9XyQ6IbTG7EHrp-27" value="média" style="shape=display;whiteSpace=wrap;html=1;" vertex="1" parent="1">
          <mxGeometry x="340" y="340" width="120" height="50" as="geometry" />
        </mxCell>
        <mxCell id="qlIrQi9XyQ6IbTG7EHrp-31" value="" style="edgeStyle=orthogonalEdgeStyle;rounded=0;orthogonalLoop=1;jettySize=auto;html=1;" edge="1" parent="1" source="qlIrQi9XyQ6IbTG7EHrp-30" target="qlIrQi9XyQ6IbTG7EHrp-27">
          <mxGeometry relative="1" as="geometry" />
        </mxCell>
        <mxCell id="qlIrQi9XyQ6IbTG7EHrp-36" value="sim" style="edgeStyle=orthogonalEdgeStyle;rounded=0;orthogonalLoop=1;jettySize=auto;html=1;" edge="1" parent="1" source="qlIrQi9XyQ6IbTG7EHrp-30" target="qlIrQi9XyQ6IbTG7EHrp-33">
          <mxGeometry relative="1" as="geometry" />
        </mxCell>
        <mxCell id="qlIrQi9XyQ6IbTG7EHrp-37" value="não" style="edgeStyle=orthogonalEdgeStyle;rounded=0;orthogonalLoop=1;jettySize=auto;html=1;" edge="1" parent="1" source="qlIrQi9XyQ6IbTG7EHrp-30" target="qlIrQi9XyQ6IbTG7EHrp-35">
          <mxGeometry relative="1" as="geometry" />
        </mxCell>
        <mxCell id="qlIrQi9XyQ6IbTG7EHrp-30" value="A média&lt;br&gt;&amp;nbsp;é maior ou igual &lt;br&gt;a 7?" style="strokeWidth=2;html=1;shape=mxgraph.flowchart.decision;whiteSpace=wrap;" vertex="1" parent="1">
          <mxGeometry x="340" y="160" width="114" height="100" as="geometry" />
        </mxCell>
        <mxCell id="qlIrQi9XyQ6IbTG7EHrp-40" value="" style="edgeStyle=orthogonalEdgeStyle;rounded=0;orthogonalLoop=1;jettySize=auto;html=1;" edge="1" parent="1" source="qlIrQi9XyQ6IbTG7EHrp-33" target="qlIrQi9XyQ6IbTG7EHrp-38">
          <mxGeometry relative="1" as="geometry" />
        </mxCell>
        <mxCell id="qlIrQi9XyQ6IbTG7EHrp-33" value="Aprovado" style="shape=display;whiteSpace=wrap;html=1;" vertex="1" parent="1">
          <mxGeometry x="530" y="185" width="120" height="50" as="geometry" />
        </mxCell>
        <mxCell id="qlIrQi9XyQ6IbTG7EHrp-39" value="" style="edgeStyle=orthogonalEdgeStyle;rounded=0;orthogonalLoop=1;jettySize=auto;html=1;" edge="1" parent="1" source="qlIrQi9XyQ6IbTG7EHrp-35" target="qlIrQi9XyQ6IbTG7EHrp-38">
          <mxGeometry relative="1" as="geometry" />
        </mxCell>
        <mxCell id="qlIrQi9XyQ6IbTG7EHrp-35" value="Reprovado" style="shape=display;whiteSpace=wrap;html=1;" vertex="1" parent="1">
          <mxGeometry x="334" y="50" width="120" height="50" as="geometry" />
        </mxCell>
        <mxCell id="qlIrQi9XyQ6IbTG7EHrp-38" value="Fim" style="ellipse;whiteSpace=wrap;html=1;" vertex="1" parent="1">
          <mxGeometry x="530" y="40" width="120" height="60" as="geometry" />
        </mxCell>
      </root>
    </mxGraphModel>
  </diagram>
</mxfile>
